<svg version="1" xmlns="http://www.w3.org/2000/svg" width="120" height="120" viewBox="0 0 90.000000 90.000000"><path d="M31 4C16.2 8.3 6.1 20.6 5.4 35.2c-.6 12.7 5.1 23.4 16.5 30.9 2.2 1.4 2.4 2.2 2.2 8.1l-.2 6.6 6.8 3.2c3.7 1.8 8.3 3.4 10.1 3.5 1.8.1 3.6.5 3.9.9.3.3 1.2.1 2-.5.7-.6 1.3-.9 1.3-.5 0 1.2 5.5-2.2 7.7-4.8 1.3-1.4 2.1-2.6 1.8-2.6-.3 0 .3-.8 1.3-1.8.9-1.1 2-1.7 2.5-1.5.4.2.7-.1.7-.6 0-.6.6-1 1.3-.9.6.2 1.1-.2 1-.9-.2-.8.4-1 1.4-.6 1 .4 1.4.2 1-.4-.4-.5.5-1.5 1.8-2.1 1.4-.7 2.5-1.6 2.5-2.2 0-.6.5-.8 1-.5.6.3 1 .1 1-.4 0-.6.4-1.1.9-1.1s2.2-.5 3.8-1.2c1.5-.6 3.1-1 3.6-1 .4.1 1.2-.9 1.9-2.3.6-1.3 1.5-2.2 2.1-1.8.6.4.8-.2.4-1.6-.3-1.4 0-2.4.9-2.8 1.1-.4 1.4-2.7 1.4-9.8v-9.2L81.8 36c-3.5-.8-6.7-1.4-7.2-1.4-.4-.1-1.7-3-2.8-6.6C68.3 16.8 61.2 9.1 50.4 5.1 45.4 3.2 35.6 2.7 31 4z"/></svg>